<?xml version="1.0" encoding="utf-8"?>
<!-- Generator: Adobe Illustrator 17.1.0, SVG Export Plug-In . SVG Version: 6.00 Build 0)  -->
<!DOCTYPE svg PUBLIC "-//W3C//DTD SVG 1.1//EN" "http://www.w3.org/Graphics/SVG/1.1/DTD/svg11.dtd">
<svg version="1.1" id="Layer_1" xmlns="http://www.w3.org/2000/svg" xmlns:xlink="http://www.w3.org/1999/xlink" x="0px" y="0px"
	 viewBox="0 0 1024 1024" enable-background="new 0 0 1024 1024" xml:space="preserve">
<g>
	<polygon fill="#FFFFFF" points="240,1021 388.8,780 247.6,822.7 405.8,541.5 516.8,546.2 346.5,757.4 468.9,730.1 	"/>
	<path fill="#FFFFFF" d="M654.4,368.6c-0.6,0-1.1,0.1-1.7,0.1c-14.5-16-35.3-26-58.6-26c-9.9,0-19.3,1.9-28,5.2
		c-30.5-86-112.3-147.7-208.8-147.7c-86,0-160.5,49-197.3,120.6c-86.7,2.9-156,73.9-156,161.3c0,89.2,72.3,161.6,161.6,161.6h488.8
		c75.9,0,137.5-61.5,137.5-137.5C791.8,430.2,730.3,368.6,654.4,368.6z"/>
</g>
</svg>
